<?xml version="1.0" standalone="no"?>
<!DOCTYPE svg PUBLIC "-//W3C//DTD SVG 20010904//EN"
 "http://www.w3.org/TR/2001/REC-SVG-20010904/DTD/svg10.dtd">
<svg version="1.0" xmlns="http://www.w3.org/2000/svg"
 width="960.000000pt" height="960.000000pt" viewBox="0 0 960.000000 960.000000"
 preserveAspectRatio="xMidYMid meet">

<g transform="translate(0.000000,960.000000) scale(0.100000,-0.100000)"
fill="#000000" stroke="none">
<path d="M6724 9480 c-52 -21 -10 17 -3251 -2939 -354 -322 -649 -587 -655
-589 -7 -1 -141 95 -298 214 -1094 832 -1397 1058 -1436 1075 -105 47 -225 43
-332 -9 -36 -17 -135 -100 -300 -250 -335 -304 -369 -338 -402 -403 -73 -143
-50 -326 54 -438 17 -18 339 -315 716 -659 377 -344 698 -637 714 -653 l30
-28 -70 -64 c-38 -35 -359 -328 -714 -651 -355 -323 -664 -610 -688 -639 -60
-73 -85 -144 -86 -242 0 -93 19 -161 67 -228 30 -42 499 -478 609 -567 71 -57
147 -83 243 -83 126 0 163 19 431 222 128 97 507 385 844 639 336 255 616 462
623 459 7 -3 120 -103 252 -224 2257 -2062 3602 -3284 3630 -3297 168 -80 383
0 464 173 l26 56 3 1131 2 1131 -607 460 c-1703 1291 -2258 1714 -2258 1722 0
10 140 117 1878 1435 l987 749 0 1107 c0 980 -2 1112 -16 1160 -29 98 -89 168
-184 216 -75 38 -200 44 -276 14z"/>
</g>
</svg>
