<?xml version="1.0" standalone="no"?>
<!DOCTYPE svg PUBLIC "-//W3C//DTD SVG 20010904//EN"
 "http://www.w3.org/TR/2001/REC-SVG-20010904/DTD/svg10.dtd">
<svg version="1.0" xmlns="http://www.w3.org/2000/svg"
 width="627.000000pt" height="616.000000pt" viewBox="0 0 627.000000 616.000000"
 preserveAspectRatio="xMidYMid meet">

<g transform="translate(0.000000,616.000000) scale(0.100000,-0.100000)"
fill="#000000" stroke="none">
<path d="M1353 5232 c-48 -7 -47 11 -51 -766 l-4 -733 28 -22 c15 -12 30 -18
33 -15 3 4 0 9 -6 11 -7 3 -13 8 -13 11 0 4 339 7 754 7 625 1 756 3 770 14
15 13 16 51 12 425 -6 538 -6 497 0 763 4 218 4 233 -14 251 -17 17 -42 19
-253 25 -129 4 -389 11 -579 16 -430 13 -649 17 -677 13z"/>
<path d="M2000 3391 l0 -288 -40 -27 c-58 -38 -80 -79 -80 -149 0 -67 17 -107
59 -136 63 -45 222 -46 236 -1 4 11 11 20 16 20 5 0 9 6 9 13 0 8 8 21 18 30
15 14 69 17 387 23 204 3 378 6 387 6 21 -1 33 29 16 39 -6 4 -16 5 -20 3 -5
-3 -8 -2 -7 3 5 30 -4 51 -27 62 -19 8 -124 11 -366 11 l-341 -1 -29 36 c-17
19 -43 42 -59 51 l-29 15 1 272 c1 150 1 280 0 290 -1 14 -11 17 -66 17 l-65
0 0 -289z"/>
<path d="M2990 2951 c0 -6 4 -13 10 -16 6 -3 7 1 4 9 -7 18 -14 21 -14 7z"/>
<path d="M2010 2566 c0 -94 -3 -208 -7 -253 l-6 -83 73 0 73 0 -7 92 c-3 50
-6 164 -6 252 l0 161 -60 1 -60 1 0 -171z"/>
<path d="M1323 2196 c-15 -13 -25 -27 -22 -30 3 -3 18 8 34 24 35 36 27 40
-12 6z"/>
<path d="M1363 2183 c-28 -19 -33 -71 -34 -321 0 -141 -5 -293 -10 -337 -14
-114 -26 -634 -16 -668 5 -15 19 -33 31 -39 24 -14 219 -13 731 2 176 5 421
12 545 15 203 5 227 8 244 25 19 19 19 29 6 447 -7 235 -14 439 -15 453 -1 14
-3 59 -4 100 -1 57 -6 83 -22 109 -14 23 -23 30 -28 22 -6 -9 -11 -8 -22 5
-11 14 -11 18 6 30 21 15 9 19 -14 5 -11 -7 -20 -3 -33 11 -10 11 -16 23 -14
27 3 3 -6 11 -19 18 -14 6 -23 7 -22 3 1 -4 -2 -8 -8 -8 -5 -1 -9 6 -7 14 3
16 -21 44 -38 44 -7 0 -2 -9 11 -20 13 -10 20 -19 16 -20 -5 0 -14 6 -22 13
-39 36 -54 45 -59 34 -3 -9 -6 -9 -13 0 -4 6 -42 14 -83 17 -41 3 -95 8 -120
11 -81 9 -975 16 -987 8z"/>
<path d="M2691 2113 c-1 -17 16 -25 25 -12 4 7 3 9 -4 5 -5 -3 -13 0 -15 6 -4
9 -6 10 -6 1z"/>
<path d="M2770 2010 c0 -5 7 -7 15 -4 8 4 15 8 15 10 0 2 -7 4 -15 4 -8 0 -15
-4 -15 -10z"/>
<path d="M5230 1978 c0 -6 3 -8 7 -5 3 4 12 2 20 -4 10 -9 10 -15 2 -25 -9
-11 -8 -14 2 -14 11 0 11 -3 -1 -11 -13 -9 -13 -10 0 -6 18 4 24 58 7 69 -18
11 -37 10 -37 -4z"/>
<path d="M5180 1973 c5 -2 10 -9 10 -14 0 -6 -6 -7 -12 -3 -7 4 -2 -5 11 -19
14 -15 25 -27 25 -27 1 0 2 12 2 28 1 15 -1 21 -3 15 -7 -19 -21 -16 -19 3 0
9 -5 18 -12 20 -7 1 -8 0 -2 -3z"/>
<path d="M4155 1960 c-4 -6 -9 -8 -13 -6 -4 2 -13 -2 -20 -10 -10 -11 -10 -14
1 -14 8 0 20 7 27 15 11 13 15 13 21 3 6 -9 9 -9 9 -1 0 16 -17 26 -25 13z"/>
<path d="M4305 1951 c-3 -5 -2 -12 3 -15 5 -3 9 1 9 9 0 17 -3 19 -12 6z"/>
<path d="M4226 1926 c4 -10 -5 -22 -23 -33 -15 -10 -29 -24 -31 -32 -3 -12 0
-12 11 -2 8 6 21 10 28 9 9 -2 13 4 11 17 -4 19 -3 19 16 -2 13 -15 18 -32 14
-49 -3 -19 -1 -25 7 -20 6 4 11 1 11 -9 0 -9 5 -13 10 -10 6 3 10 -1 10 -9 0
-9 5 -16 10 -16 6 0 10 -4 10 -10 0 -5 -6 -7 -14 -4 -9 3 -17 -3 -21 -15 -3
-12 -11 -21 -16 -21 -5 0 -9 -8 -9 -17 0 -14 4 -12 25 7 28 26 34 24 40 -13 4
-22 2 -24 -16 -20 -20 6 -20 7 -6 18 9 7 14 15 11 18 -11 10 -56 -43 -50 -59
7 -19 -22 -30 -37 -14 -10 10 -7 11 13 5 21 -7 23 -6 13 7 -9 10 -9 18 -2 25
8 8 8 13 0 17 -6 4 -11 2 -11 -3 0 -6 -5 -11 -11 -11 -6 0 -8 7 -5 16 3 8 2
12 -4 9 -6 -3 -10 -2 -10 4 0 5 5 13 10 16 6 3 10 12 10 18 0 9 -2 9 -8 0 -15
-24 -39 14 -27 45 4 12 8 12 23 1 15 -13 16 -12 3 3 -7 10 -17 16 -21 13 -4
-3 -14 3 -21 12 -12 14 -12 16 1 8 13 -8 13 -7 0 11 -8 10 -15 20 -16 22 0 1
-15 -3 -32 -9 -19 -6 -32 -18 -32 -27 0 -13 2 -14 8 -4 13 19 55 25 48 7 -3
-8 1 -20 8 -27 11 -10 11 -15 0 -25 -15 -15 -34 -17 -34 -3 0 18 -28 10 -35
-9 -10 -33 -30 -44 -46 -24 -12 15 -12 16 3 10 24 -9 31 8 12 28 -16 15 -16
16 2 13 22 -4 32 27 10 35 -20 8 -65 -31 -48 -42 9 -6 9 -11 -1 -25 -11 -15
-13 -15 -15 10 -1 15 3 33 10 41 9 11 8 13 -3 11 -8 -2 -17 -7 -21 -12 -4 -6
-13 -4 -22 3 -11 9 -16 10 -16 2 0 -6 -5 -11 -11 -11 -8 0 -8 5 1 15 7 8 19
15 27 15 9 0 5 9 -12 26 -14 14 -23 30 -19 35 3 5 -11 -2 -32 -16 -29 -20 -40
-23 -47 -13 -6 9 -7 8 -3 -4 5 -17 -28 -58 -46 -58 -5 0 -6 -6 -1 -12 4 -7 -7
-2 -24 12 -28 22 -29 27 -16 40 12 11 17 12 20 3 3 -7 12 -13 21 -13 15 0 15
2 2 10 -13 9 -7 14 12 11 4 0 5 6 1 15 -4 10 -8 12 -12 5 -4 -6 -22 -9 -41 -7
-42 5 -60 -2 -60 -21 0 -8 4 -12 9 -9 5 3 11 -1 15 -9 3 -8 0 -17 -7 -21 -7
-4 -9 -4 -5 1 4 4 0 14 -9 20 -18 13 -43 9 -43 -7 0 -5 5 -6 10 -3 14 8 7 -32
-8 -47 -8 -8 -7 -14 5 -23 13 -10 13 -14 3 -20 -9 -6 -11 -4 -5 6 4 8 0 6 -11
-3 -13 -13 -15 -21 -7 -29 6 -6 9 -19 5 -28 -5 -14 -4 -14 11 -2 21 16 23 5 3
-15 -8 -7 -16 -10 -18 -4 -2 6 -8 6 -18 0 -13 -9 -13 -11 -1 -19 8 -5 23 -8
33 -6 10 2 16 0 13 -5 -3 -4 1 -11 7 -14 7 -2 4 -4 -7 -3 -11 2 -26 6 -34 11
-8 5 -17 3 -23 -5 -8 -11 -8 -10 -4 4 4 13 0 20 -14 24 -11 3 -17 9 -15 14 3
4 12 6 19 3 8 -3 17 0 22 7 4 8 3 10 -4 5 -7 -4 -12 -3 -12 1 0 13 -43 11 -57
-3 -15 -14 -17 -28 -5 -20 5 3 9 -1 9 -9 0 -8 -4 -15 -9 -15 -11 0 -6 -23 7
-32 6 -5 5 -8 -2 -8 -8 0 -13 -13 -13 -30 0 -16 -5 -30 -11 -30 -8 0 -7 -6 2
-17 10 -11 10 -14 2 -9 -8 4 -13 2 -13 -6 0 -9 -3 -9 -10 2 -7 11 -10 3 -10
-30 0 -25 -4 -40 -8 -34 -4 7 -16 2 -32 -14 -15 -16 -18 -24 -8 -20 22 9 30
-2 13 -18 -17 -17 -29 -18 -19 -2 4 7 3 8 -4 4 -6 -4 -9 -13 -6 -21 4 -8 11
-12 17 -8 6 3 7 1 3 -6 -4 -6 -11 -9 -16 -6 -4 3 -13 -2 -20 -10 -11 -13 -8
-15 14 -15 16 0 25 -4 21 -10 -3 -5 -3 -16 1 -22 6 -9 10 -5 15 12 l7 25 1
-27 c1 -30 -8 -35 -26 -17 -15 15 -37 -7 -41 -41 -7 -65 -6 -300 1 -300 5 0 5
-5 2 -11 -4 -5 1 -19 12 -31 17 -19 25 -20 213 -14 107 4 236 9 285 11 50 2
257 7 460 11 204 4 393 8 420 10 28 1 168 3 312 3 261 1 262 1 290 25 l27 24
-3 428 c-2 262 -7 436 -13 448 -7 13 -7 16 1 12 14 -9 14 4 0 24 -8 12 -12 12
-16 2 -4 -10 -8 -10 -19 -2 -19 16 -32 5 -29 -24 3 -22 1 -24 -15 -13 -10 6
-17 14 -15 17 2 3 -6 6 -18 7 -12 0 -16 -1 -9 -4 11 -4 42 -54 42 -68 0 -3 -5
-5 -11 -5 -5 0 -7 5 -3 11 5 8 1 8 -13 0 -11 -6 -24 -7 -28 -3 -5 4 -5 1 -1
-6 5 -7 14 -11 21 -8 8 3 19 -2 26 -10 10 -12 9 -13 -5 -8 -9 3 -23 1 -31 -6
-8 -6 -19 -9 -24 -6 -5 4 -9 -2 -8 -13 1 -11 3 -18 6 -16 2 3 9 -5 15 -17 6
-12 17 -23 24 -24 7 -1 8 0 2 3 -5 2 -7 10 -4 15 4 6 2 8 -3 5 -6 -4 -13 2
-16 13 -9 35 9 31 26 -6 13 -26 14 -36 4 -38 -23 -8 -46 -3 -40 8 4 6 -1 5
-10 -3 -9 -7 -15 -17 -12 -20 2 -4 -2 -8 -9 -8 -9 0 -13 11 -12 30 1 16 -3 35
-10 42 -7 7 -11 15 -8 18 3 3 0 8 -6 12 -6 3 -10 3 -9 -2 1 -4 1 -15 0 -24 -1
-19 -28 -21 -28 -3 0 7 5 12 11 11 6 -1 10 10 10 25 -1 15 4 26 10 25 16 -3
34 -21 30 -29 -2 -4 -1 -9 4 -12 12 -7 8 46 -6 69 -6 11 -12 15 -12 9 0 -20
-32 -25 -56 -9 -13 9 -24 11 -24 5 0 -5 -4 -10 -9 -10 -5 0 -7 8 -4 19 5 20
-18 42 -25 23 -2 -7 -8 -10 -13 -6 -5 3 -9 0 -9 -5 0 -6 5 -11 11 -11 6 0 8
-7 5 -16 -3 -8 -2 -12 3 -9 5 3 12 1 16 -5 3 -5 1 -10 -5 -10 -6 0 -9 -4 -5
-9 3 -5 0 -13 -6 -17 -8 -4 -9 -3 -5 4 10 16 -3 14 -34 -3 -32 -18 -54 -19
-43 -2 13 19 10 61 -4 75 -16 16 -61 23 -69 10 -3 -4 -2 -8 3 -7 4 1 14 1 22
0 12 -1 12 -4 -1 -18 -18 -21 -13 -43 10 -43 15 0 15 2 2 10 -12 7 -10 9 7 7
12 0 19 -5 16 -11 -3 -5 -1 -6 5 -2 7 4 12 3 12 -2 0 -5 -12 -14 -26 -20 -14
-7 -23 -8 -19 -2 3 5 1 10 -4 10 -6 0 -11 -3 -11 -8 0 -4 -10 -13 -22 -21 -21
-13 -22 -13 -10 2 8 9 9 18 3 21 -5 3 -11 1 -13 -5 -3 -9 -10 -8 -25 2 -17 10
-19 16 -11 27 8 9 8 16 1 23 -8 8 -13 8 -17 0 -4 -5 -14 -7 -23 -4 -11 4 -14
3 -9 -5 6 -9 1 -9 -18 -1 -28 13 -26 32 1 22 15 -6 16 -5 3 9 -11 11 -17 12
-22 4 -5 -7 -8 -6 -8 4 0 13 -2 13 -9 1 -12 -18 -3 -41 16 -41 8 0 12 -4 8 -9
-3 -6 -19 -8 -36 -6 -21 3 -33 -2 -42 -16 -12 -19 -37 -26 -37 -10 0 17 -27
19 -54 6 -15 -8 -24 -10 -21 -5 4 6 -1 10 -9 10 -9 0 -15 -6 -13 -12 1 -9 -10
-12 -33 -11 -23 1 -40 -5 -52 -19 -10 -12 -18 -16 -18 -10 0 6 -7 9 -15 6 -8
-4 -15 -10 -15 -16 0 -5 4 -7 9 -3 10 6 45 -24 37 -33 -3 -2 -12 1 -20 7 -10
8 -16 9 -21 2 -4 -7 -11 -7 -19 2 -8 6 -12 15 -9 20 2 4 -1 7 -7 7 -6 0 -8 5
-4 12 4 7 3 8 -4 4 -6 -4 -9 -13 -5 -21 3 -9 -1 -15 -10 -15 -8 0 -17 6 -20
14 -3 7 -15 16 -26 19 -12 3 -19 1 -15 -4 3 -5 1 -9 -4 -9 -5 0 -14 11 -20 25
-14 31 -15 38 -4 31 5 -3 9 1 9 8 0 7 -7 13 -15 12 -8 0 -16 7 -17 16 -3 15 0
16 17 7 15 -8 19 -8 14 0 -4 6 -2 11 3 11 6 0 11 -5 11 -11 0 -6 7 -4 15 5 23
22 19 39 -5 26 -19 -10 -25 -4 -21 23 1 4 -8 3 -20 -4 -15 -8 -19 -8 -15 0 4
6 0 11 -11 11 -15 0 -15 2 -3 9 8 6 19 7 25 3 5 -3 4 2 -4 11 -10 13 -17 14
-33 6 -15 -8 -19 -8 -14 0 5 7 -1 11 -14 11 -12 0 -18 5 -15 10 4 6 11 8 16 5
5 -4 9 -4 9 -1 0 3 -9 10 -20 16 -16 8 -18 8 -14 -4z m904 -96 c0 -5 -5 -10
-11 -10 -5 0 -7 5 -4 10 3 6 8 10 11 10 2 0 4 -4 4 -10z m-1240 -25 c0 -22 -2
-24 -19 -13 -15 9 -17 15 -9 25 16 20 28 15 28 -12z m40 20 c0 -2 -6 -8 -13
-14 -10 -8 -14 -7 -14 2 0 8 6 14 14 14 7 0 13 -1 13 -2z m1228 -66 c9 -12 9
-16 -1 -16 -7 0 -14 9 -14 20 -1 11 -1 18 0 16 2 -2 8 -11 15 -20z m-1343 -10
c-4 -21 -4 -21 15 -4 23 21 27 11 6 -11 -18 -17 -24 -18 -41 0 -10 10 -11 16
-2 25 17 17 26 13 22 -10z m961 6 c-8 -8 -18 -15 -22 -15 -3 0 -1 7 6 15 7 8
17 15 22 15 5 0 3 -7 -6 -15z m55 8 c0 -5 2 -16 4 -26 3 -17 -31 -44 -43 -33
-3 3 0 6 7 6 7 0 10 4 6 9 -3 5 -1 12 5 16 5 3 10 11 10 17 0 6 -8 1 -19 -10
-10 -12 -22 -22 -26 -22 -5 0 2 11 15 25 23 25 39 32 41 18z m-137 -29 c5 -14
4 -15 -9 -4 -12 10 -15 10 -16 -1 0 -10 -2 -11 -6 -1 -2 6 -9 10 -14 6 -5 -3
-9 0 -9 5 0 18 47 12 54 -5z m-534 -18 c13 -18 13 -19 -1 -14 -9 4 -22 1 -28
-5 -6 -6 -11 -7 -11 -2 0 4 -8 -2 -19 -14 l-19 -21 2 32 c1 27 6 33 24 34 13
1 25 4 29 8 3 3 7 5 7 4 1 -2 8 -12 16 -22z m852 -14 c-3 -10 -1 -13 6 -8 7 4
12 2 12 -3 0 -21 -27 -11 -38 15 -7 14 -8 23 -2 19 5 -3 10 0 10 7 0 10 2 10
9 -1 5 -8 7 -21 3 -29z m-1125 12 c0 -7 -3 -13 -6 -12 -3 0 -13 0 -21 -1 -13
-1 -13 -2 0 -11 10 -6 11 -10 3 -10 -7 0 -13 -4 -13 -9 0 -5 8 -8 18 -6 9 1
11 0 5 -2 -7 -3 -13 -9 -13 -14 0 -5 -6 -4 -14 3 -10 9 -11 17 -4 25 7 9 6 15
-5 19 -13 5 -14 9 -4 19 15 17 54 16 54 -1z m28 6 c3 -5 1 -10 -4 -10 -6 0
-11 5 -11 10 0 6 2 10 4 10 3 0 8 -4 11 -10z m60 -2 c4 -3 2 -9 -3 -12 -5 -3
-15 1 -21 8 -10 11 -9 14 3 12 9 -1 18 -5 21 -8z m-285 -20 c0 -5 5 -6 10 -3
6 3 10 -1 10 -9 0 -9 5 -16 11 -16 6 0 4 -7 -5 -15 -20 -21 -29 -19 -21 4 4
14 0 23 -15 31 -23 12 -28 32 -5 24 8 -4 15 -10 15 -16z m1406 10 c3 -4 -4
-12 -16 -18 -25 -13 -33 -9 -25 13 6 15 28 17 41 5z m54 -12 c-7 -7 -13 -7
-20 0 -6 6 -3 10 10 10 13 0 16 -4 10 -10z m-1013 -21 c-23 -22 -33 -18 -12 5
10 11 20 18 23 16 2 -3 -3 -12 -11 -21z m-363 0 c-4 -8 -8 -15 -10 -15 -2 0
-4 7 -4 15 0 8 4 15 10 15 5 0 7 -7 4 -15z m421 5 c8 -13 -5 -13 -25 0 -13 8
-13 10 2 10 9 0 20 -4 23 -10z m492 4 c-3 -3 -12 -4 -19 -1 -8 3 -5 6 6 6 11
1 17 -2 13 -5z m131 -8 c-7 -8 -15 -12 -17 -11 -5 6 10 25 20 25 5 0 4 -6 -3
-14z m401 -12 c4 3 8 -1 8 -9 0 -11 -4 -12 -14 -4 -7 6 -13 17 -12 23 0 7 2 6
6 -2 2 -6 8 -10 12 -8z m-252 -16 c-3 -8 -6 -5 -6 6 -1 11 2 17 5 13 3 -3 4
-12 1 -19z m-810 -20 c-6 -4 -15 -2 -19 5 -6 9 -8 8 -8 -2 0 -8 -3 -11 -6 -8
-4 4 -1 13 5 21 10 12 16 13 26 3 9 -9 10 -14 2 -19z m156 -13 c-3 -9 -8 -14
-10 -11 -3 3 -2 9 2 15 9 16 15 13 8 -4z m221 7 c2 -4 -4 -8 -14 -8 -10 0 -16
4 -14 8 3 4 9 8 14 8 5 0 11 -4 14 -8z m-924 -16 c0 -11 -19 -15 -25 -6 -3 5
1 10 9 10 9 0 16 -2 16 -4z m633 -30 c-3 -4 -9 -2 -14 5 -13 22 -11 31 5 17 8
-7 12 -17 9 -22z m505 9 c-3 -3 -9 2 -12 12 -6 14 -5 15 5 6 7 -7 10 -15 7
-18z m-1068 -11 c7 -7 2 -10 -13 -10 -13 0 -24 5 -24 12 0 14 23 12 37 -2z
m330 -50 c0 -8 -19 -13 -24 -6 -3 5 1 9 9 9 8 0 15 -2 15 -3z"/>
<path d="M4090 1709 c0 -5 5 -7 10 -4 6 3 10 8 10 11 0 2 -4 4 -10 4 -5 0 -10
-5 -10 -11z"/>
<path d="M3845 1710 c-3 -6 1 -7 9 -4 18 7 21 14 7 14 -6 0 -13 -4 -16 -10z"/>
<path d="M4004 1912 c4 -7 3 -18 -3 -25 -7 -10 -5 -13 9 -14 29 -2 32 12 8 33
-12 11 -18 13 -14 6z"/>
<path d="M4131 1904 c0 -11 3 -14 6 -6 3 7 2 16 -1 19 -3 4 -6 -2 -5 -13z"/>
<path d="M5093 1915 c4 -5 0 -16 -8 -25 -13 -15 -13 -17 0 -17 8 0 13 3 10 5
-3 3 0 11 6 18 7 9 6 14 -3 20 -7 4 -10 3 -5 -1z"/>
<path d="M5369 1899 c-19 -19 -22 -19 -38 -5 -16 15 -19 15 -35 -3 -17 -18
-16 -19 22 -17 21 0 46 7 55 14 11 10 16 10 19 1 3 -8 9 -9 21 -3 11 7 13 14
7 24 -7 10 -10 11 -10 3 0 -7 -5 -13 -11 -13 -5 0 -7 5 -4 10 11 17 -4 11 -26
-11z"/>
<path d="M3756 1888 c3 -5 10 -6 15 -3 13 9 11 12 -6 12 -8 0 -12 -4 -9 -9z"/>
<path d="M3873 1885 c0 -8 4 -12 9 -9 5 3 6 10 3 15 -9 13 -12 11 -12 -6z"/>
<path d="M4365 1880 c-3 -5 -1 -10 5 -10 6 0 9 -4 6 -8 -3 -5 0 -9 7 -9 7 0
13 9 13 19 0 19 -21 25 -31 8z"/>
<path d="M5194 1865 c-14 -11 -15 -15 -4 -14 31 3 51 -1 46 -9 -3 -5 2 -9 10
-9 10 0 11 4 5 10 -7 7 -5 15 7 23 15 12 14 13 -14 14 -16 0 -39 -7 -50 -15z"/>
<path d="M3621 1842 c-12 -12 -12 -16 3 -24 9 -5 13 -14 10 -20 -4 -7 -2 -8 4
-4 8 4 12 0 12 -11 0 -15 2 -16 10 -3 6 9 5 17 -2 21 -6 4 -7 12 -4 18 4 6 1
17 -6 25 -11 11 -16 11 -27 -2z"/>
<path d="M4900 1842 c-13 -14 -12 -15 3 -9 9 3 19 2 22 -3 4 -6 1 -10 -6 -10
-8 0 -8 -4 1 -15 10 -12 10 -19 2 -27 -18 -18 -14 -32 5 -17 13 11 17 11 20 1
3 -6 9 -10 14 -6 6 4 -29 85 -45 100 0 1 -8 -5 -16 -14z"/>
<path d="M5150 1849 c0 -15 41 -51 49 -44 3 4 1 9 -5 13 -6 4 -13 15 -17 25
-7 19 -27 23 -27 6z"/>
<path d="M4685 1840 c-3 -5 -1 -10 4 -10 6 0 11 5 11 10 0 6 -2 10 -4 10 -3 0
-8 -4 -11 -10z"/>
<path d="M4724 1836 c20 -16 17 -19 -19 -18 -18 1 -18 0 -2 -5 17 -4 17 -6 3
-22 -14 -15 -14 -18 -2 -18 8 0 15 3 14 6 -2 18 3 24 11 12 6 -9 11 -10 15 -2
4 6 2 11 -5 11 -9 0 -9 3 0 14 10 12 8 17 -11 26 -22 11 -22 10 -4 -4z"/>
<path d="M5034 1838 c-4 -7 -3 -8 4 -4 7 4 12 2 12 -4 0 -6 5 -8 10 -5 11 7 4
25 -10 25 -5 0 -12 -5 -16 -12z"/>
<path d="M3501 1827 c-8 -10 -7 -14 2 -14 8 0 14 6 14 14 0 7 -1 13 -2 13 -2
0 -8 -6 -14 -13z"/>
<path d="M5202 1826 c7 -8 15 -12 17 -11 5 6 -10 25 -20 25 -5 0 -4 -6 3 -14z"/>
<path d="M4110 1809 c0 -5 5 -7 10 -4 6 3 10 8 10 11 0 2 -4 4 -10 4 -5 0 -10
-5 -10 -11z"/>
<path d="M4509 1793 c-19 -22 -20 -24 -3 -10 17 14 23 15 27 5 3 -7 4 -3 4 10
-1 12 -2 22 -2 22 -1 0 -12 -12 -26 -27z"/>
<path d="M3563 1785 c-7 -8 -13 -19 -13 -25 0 -5 6 -10 13 -10 8 0 7 -4 -3
-10 -13 -9 -13 -12 3 -21 9 -6 15 -14 12 -19 -3 -4 6 -7 21 -5 31 3 52 21 25
21 -11 0 -17 -4 -15 -8 9 -15 -13 -8 -26 7 -12 14 -10 15 13 11 37 -6 43 9 14
38 -14 14 -22 27 -19 30 3 3 1 6 -4 6 -5 -1 -15 -7 -21 -15z"/>
<path d="M3610 1780 c6 -11 15 -18 21 -15 5 4 3 12 -5 21 -21 20 -28 17 -16
-6z"/>
<path d="M4133 1785 c0 -8 4 -12 9 -9 5 3 6 10 3 15 -9 13 -12 11 -12 -6z"/>
<path d="M4445 1790 c3 -5 2 -10 -3 -10 -5 0 -9 -7 -9 -16 0 -14 2 -14 14 2
16 22 17 34 2 34 -5 0 -7 -4 -4 -10z"/>
<path d="M4406 1747 c3 -10 9 -15 12 -12 3 3 0 11 -7 18 -10 9 -11 8 -5 -6z"/>
<path d="M3530 1739 c0 -5 5 -7 10 -4 6 3 10 8 10 11 0 2 -4 4 -10 4 -5 0 -10
-5 -10 -11z"/>
</g>
</svg>
